<?xml version="1.0" encoding="UTF-8" standalone="no"?>
<!-- Generator: Adobe Illustrator 15.1.0, SVG Export Plug-In  -->

<svg
   xmlns:dc="http://purl.org/dc/elements/1.1/"
   xmlns:cc="http://creativecommons.org/ns#"
   xmlns:rdf="http://www.w3.org/1999/02/22-rdf-syntax-ns#"
   xmlns:svg="http://www.w3.org/2000/svg"
   xmlns="http://www.w3.org/2000/svg"
   xmlns:sodipodi="http://sodipodi.sourceforge.net/DTD/sodipodi-0.dtd"
   xmlns:inkscape="http://www.inkscape.org/namespaces/inkscape"
   version="1.1"
   x="0px"
   y="0px"
   width="12px"
   height="12px"
   viewBox="0 0 12 12"
   style="overflow:visible;enable-background:new 0 0 12 12;"
   xml:space="preserve"
   preserveAspectRatio="xMinYMid meet"
   id="svg3008"
   inkscape:version="0.48.4 r9939"
   sodipodi:docname="mstge.svg"><metadata
   id="metadata3016"><rdf:RDF><cc:Work
       rdf:about=""><dc:format>image/svg+xml</dc:format><dc:type
         rdf:resource="http://purl.org/dc/dcmitype/StillImage" /><dc:title></dc:title></cc:Work></rdf:RDF></metadata><sodipodi:namedview
   pagecolor="#ffffff"
   bordercolor="#666666"
   borderopacity="1"
   objecttolerance="10"
   gridtolerance="10"
   guidetolerance="10"
   inkscape:pageopacity="0"
   inkscape:pageshadow="2"
   inkscape:window-width="1920"
   inkscape:window-height="1017"
   id="namedview3014"
   showgrid="false"
   inkscape:zoom="19.666667"
   inkscape:cx="-10.652542"
   inkscape:cy="6.0000002"
   inkscape:window-x="-4"
   inkscape:window-y="-4"
   inkscape:window-maximized="1"
   inkscape:current-layer="svg3008" />
<defs
   id="defs3010">
</defs>

<rect
   style="fill:#999999;fill-opacity:1"
   id="rect3012"
   width="11.949152"
   height="1.8305086"
   x="0.050847452"
   y="-0.050847456" /><rect
   style="fill:#999999;fill-opacity:1;overflow:visible"
   id="rect3012-1"
   width="12.050847"
   height="1.8305086"
   x="-0.025423655"
   y="10.220339" /><rect
   style="fill:#999999;fill-opacity:1;overflow:visible"
   id="rect3012-1-7"
   width="12.050847"
   height="1.8305086"
   x="0.025423633"
   y="-1.7796614"
   transform="matrix(0,1,-1,0,0,0)" /><rect
   style="fill:#999999;fill-opacity:1;overflow:visible"
   id="rect3012-1-7-0"
   width="12.050847"
   height="1.8305086"
   x="0.025423888"
   y="-12.101695"
   transform="matrix(0,1,-1,0,0,0)" /><rect
   style="fill:#999999;fill-opacity:1;overflow:visible"
   id="rect3012-1-7-9"
   width="8.572711"
   height="0.9841038"
   x="1.5558407"
   y="2.7747111"
   transform="matrix(0.99999523,0.00308819,0.05609703,0.99842532,0,0)" /><rect
   style="fill:#999999;fill-opacity:1;overflow:visible"
   id="rect3012-1-7-9-4"
   width="8.8745975"
   height="0.98434645"
   x="-10.222956"
   y="-5.9402256"
   transform="matrix(-0.99999983,-5.7664483e-4,-0.06267605,-0.99803392,0,0)" /><rect
   style="fill:#e6e6e6;fill-opacity:1;overflow:visible"
   id="rect3012-1-7-9-4-2"
   width="8.8745975"
   height="0.98434645"
   x="-10.19212"
   y="-2.7814918"
   transform="matrix(-0.99999983,-5.7664483e-4,-0.06267605,-0.99803392,0,0)" /><rect
   style="fill:#999999;fill-opacity:1;overflow:visible"
   id="rect3012-1-7-9-4-8"
   width="9.6823664"
   height="1.518659"
   x="-3.4678955"
   y="-6.2545805"
   transform="matrix(0.00700051,0.9999755,-0.53954999,-0.84195356,0,0)" /><rect
   style="fill:#999999;fill-opacity:1;overflow:visible"
   id="rect3012-1-7-9-4-8-1"
   width="9.6823664"
   height="1.518659"
   x="-6.0463767"
   y="-9.2566109"
   transform="matrix(0.00700051,0.9999755,-0.53954999,-0.84195356,0,0)" /><rect
   style="fill:#999999;fill-opacity:1;overflow:visible"
   id="rect3012-1-7-9-4-8-7"
   width="9.6823664"
   height="1.518659"
   x="-8.481925"
   y="-12.209666"
   transform="matrix(0.00700051,0.9999755,-0.53954999,-0.84195356,0,0)" /><rect
   style="fill:#999999;fill-opacity:1;overflow:visible"
   id="rect3012-1-7-9-4-8-4"
   width="9.6823664"
   height="1.518659"
   x="-10.968884"
   y="-15.163389"
   transform="matrix(0.00700051,0.9999755,-0.53954999,-0.84195356,0,0)" /><rect
   style="fill:#999999;fill-opacity:1;overflow:visible"
   id="rect3012-1-7-9-4-8-0"
   width="9.6823664"
   height="1.518659"
   x="-13.375618"
   y="-18.021832"
   transform="matrix(0.00700051,0.9999755,-0.53954999,-0.84195356,0,0)" /><rect
   style="fill:#999999;fill-opacity:1;overflow:visible"
   id="rect3012-1-7-9-4-4"
   width="8.8745975"
   height="0.98434645"
   x="-10.127035"
   y="-7.8762913"
   transform="matrix(-0.99999983,-5.7664483e-4,-0.06267605,-0.99803392,0,0)" /><rect
   style="fill:#999999;fill-opacity:1;overflow:visible"
   id="rect3012-1-7-9-4-88"
   width="8.8745975"
   height="0.98434645"
   x="-9.8627214"
   y="-9.6596117"
   transform="matrix(-0.99999983,-5.7664483e-4,-0.06267605,-0.99803392,0,0)" /></svg>