<?xml version="1.0" encoding="UTF-8" standalone="no"?>
<!-- Generator: Adobe Illustrator 15.1.0, SVG Export Plug-In  -->

<svg
   xmlns:dc="http://purl.org/dc/elements/1.1/"
   xmlns:cc="http://creativecommons.org/ns#"
   xmlns:rdf="http://www.w3.org/1999/02/22-rdf-syntax-ns#"
   xmlns:svg="http://www.w3.org/2000/svg"
   xmlns="http://www.w3.org/2000/svg"
   xmlns:sodipodi="http://sodipodi.sourceforge.net/DTD/sodipodi-0.dtd"
   xmlns:inkscape="http://www.inkscape.org/namespaces/inkscape"
   version="1.1"
   x="0px"
   y="0px"
   width="12px"
   height="12px"
   viewBox="0 0 12 12"
   style="overflow:visible;enable-background:new 0 0 12 12;"
   xml:space="preserve"
   preserveAspectRatio="xMinYMid meet"
   id="svg3008"
   inkscape:version="0.48.4 r9939"
   sodipodi:docname="nota.svg"><metadata
   id="metadata3016"><rdf:RDF><cc:Work
       rdf:about=""><dc:format>image/svg+xml</dc:format><dc:type
         rdf:resource="http://purl.org/dc/dcmitype/StillImage" /><dc:title></dc:title></cc:Work></rdf:RDF></metadata><sodipodi:namedview
   pagecolor="#ffffff"
   bordercolor="#666666"
   borderopacity="1"
   objecttolerance="10"
   gridtolerance="10"
   guidetolerance="10"
   inkscape:pageopacity="0"
   inkscape:pageshadow="2"
   inkscape:window-width="1920"
   inkscape:window-height="1017"
   id="namedview3014"
   showgrid="false"
   inkscape:zoom="19.666667"
   inkscape:cx="6"
   inkscape:cy="6"
   inkscape:window-x="-4"
   inkscape:window-y="-4"
   inkscape:window-maximized="1"
   inkscape:current-layer="svg3008" />
<defs
   id="defs3010">
</defs>

<rect
   style="fill:#999999;fill-opacity:1"
   id="rect3044"
   width="8.7457628"
   height="1.9830508"
   x="0.050847456"
   y="2.0338984" /><rect
   style="fill:#999999;fill-opacity:1;overflow:visible"
   id="rect3044-7"
   width="8.7457628"
   height="1.9830508"
   x="0.050847214"
   y="10.042373" /><rect
   style="fill:#999999;fill-opacity:1;overflow:visible"
   id="rect3044-4"
   width="8.7457628"
   height="1.9830508"
   x="2.0847459"
   y="-2.0084748"
   transform="matrix(0,1,-1,0,0,0)" /><rect
   style="fill:#999999;fill-opacity:1;overflow:visible"
   id="rect3044-4-0"
   width="8.7457628"
   height="1.9830508"
   x="2.0847456"
   y="-8.7711868"
   transform="matrix(0,1,-1,0,0,0)" /><path
   style="fill:#999999;fill-opacity:1"
   id="path3100"
   d="m 3.0623005,5.0639437 c 0.087191,0.1788956 0.1942589,0.3471298 0.2734044,0.5301699 0.045655,0.1055862 0.077636,0.2052189 0.1152084,0.3140328 0.1243731,0.3577075 0.2352808,0.7194672 0.3400254,1.0833131 0.097198,0.2879163 0.1477391,0.5972597 0.2896419,0.8679672 0.011671,0.078362 0.1968942,-0.07259 0.1490739,-0.050903 C 4.0669105,7.8823309 3.9287349,8.0293387 3.7512993,8.0505452 3.6511607,8.0625134 3.8985517,7.912561 3.9683391,7.8397552 4.1610587,7.6387002 4.3427825,7.4273859 4.5304969,7.22165 5.039696,6.6547626 5.5774297,6.1065916 6.1864622,5.6455861 6.309908,5.5521441 6.438498,5.4656998 6.564516,5.3757567 7.538512,4.7350661 8.5676398,4.1840283 9.5759752,3.6001221 8.6554019,4.1358703 9.6759802,3.5184968 9.8458423,3.4144722 c 0,0 0.6818287,-0.2636731 0.6818287,-0.2636731 l 0,0 C 10.027096,3.4558923 9.531514,3.7689891 9.0177052,4.0520254 8.3187694,4.4507414 8.1604472,4.5074112 7.2158767,5.1187601 7.0903726,5.2070287 6.9622783,5.2917249 6.8393644,5.3835661 6.2284697,5.8400264 5.6830119,6.3801078 5.1781701,6.9496429 5.0796707,7.0590591 4.9811713,7.1684754 4.8826719,7.2778916 4.8003042,7.3728653 4.7196371,7.4693408 4.6355689,7.5628125 4.5700593,7.6356498 4.5138931,7.7199778 4.4340322,7.7767142 4.1806206,7.956748 3.9140877,8.1187083 3.6418611,8.2687827 3.6027419,8.2903485 3.5529511,8.2948809 3.5090471,8.2866443 3.4772262,8.2806744 3.4568456,8.248332 3.4307448,8.2291758 3.2983712,7.9482627 3.2354979,7.6401401 3.1419651,7.3451745 3.0393873,6.9822064 2.9343982,6.6199514 2.8036699,6.2658375 2.7764923,6.1890396 2.7240315,6.0365112 2.6910586,5.9593992 2.6138763,5.778897 2.5079086,5.6137384 2.4126812,5.4427467 c 0,0 0.6496193,-0.378803 0.6496193,-0.378803 z"
   inkscape:connector-curvature="0" /><path
   style="fill:#999999;fill-opacity:1"
   id="path3102"
   d="m 2.7006702,5.7116441 c 0.1664065,0.235566 0.3277897,0.4744274 0.4868605,0.7149963 0.1746444,0.2345146 0.3225812,0.4865183 0.4688895,0.739171 0.136467,0.2224904 0.2577598,0.4537602 0.3845099,0.6817975 0.1100186,0.1992244 0.2039258,0.4065084 0.3081926,0.6086082 0.095098,0.1629598 0.143905,0.3550104 0.2742676,0.4946594 0.014215,0.00492 0.027616,0.015334 0.042645,0.014745 0.013057,-5.115e-4 0.023289,-0.011856 0.034934,-0.017784 -0.2063161,0.1115897 -0.4102998,0.2276039 -0.6189484,0.334769 -0.018455,0.00948 0.032614,-0.025879 0.046878,-0.040945 C 4.1726159,9.1954863 4.186415,9.1663744 4.2202291,9.111585 4.3119679,8.9144733 4.4239533,8.7280226 4.5301274,8.5386024 4.6449113,8.3231433 4.7442558,8.1002049 4.8543111,7.8822838 4.9481931,7.6884385 5.0544115,7.5017527 5.1663741,7.3179234 5.2526943,7.1765706 5.3533156,7.0451232 5.4580513,6.917109 5.6372744,6.6938562 5.8455875,6.4975719 6.0460502,6.2940918 6.3247754,6.0225456 6.6469964,5.8022324 6.9714319,5.5897119 7.0211701,5.5584602 7.0698275,5.5254183 7.1206465,5.4959566 7.3896002,5.340034 7.6600548,5.1867082 7.930635,5.0336255 8.0791444,4.9496052 7.338494,5.3730339 7.4868635,5.2887667 7.7560963,5.1358544 8.0247105,4.9818538 8.293228,4.8276888 8.4500447,4.737655 7.979054,5.0068112 7.8219669,5.0963724 8.0822836,4.9475611 8.3426002,4.7987498 8.6029168,4.6499385 8.9555744,4.4919675 9.2818838,4.2828516 9.6276568,4.111282 9.9290092,3.9560479 10.224614,3.7901204 10.523296,3.6299623 c 0.173283,-0.085352 0.08925,-0.040601 0.252317,-0.1338198 0,0 -0.578937,0.4672684 -0.578937,0.4672684 l 0,0 c -0.164542,0.088935 -0.08064,0.044817 -0.2517853,0.132196 C 9.648708,4.2565253 9.3526006,4.417543 9.0527286,4.5715587 8.7087252,4.7484785 8.3776728,4.950087 8.0269804,5.1142276 9.0719548,4.5018771 8.1842714,5.0228873 7.7210639,5.2894289 7.5701543,5.3762662 8.3234269,4.9398974 8.1719323,5.0257101 7.8995245,5.1800131 7.6314061,5.3418382 7.3583048,5.4949105 7.2059841,5.5802857 7.6581781,5.3158886 7.8095422,5.2288285 7.8605642,5.1994821 7.7094361,5.290769 7.6593831,5.3217392 7.3339502,5.528393 7.0127284,5.7461233 6.7300645,6.0096654 6.5342673,6.213432 6.3232548,6.4030859 6.147073,6.6249805 6.0397316,6.7474042 5.9446837,6.8801684 5.8534616,7.0148213 5.7373551,7.1965751 5.6276386,7.3817406 5.5332917,7.5758852 5.420677,7.7926852 5.3235953,8.0159674 5.2127801,8.2334648 5.1078981,8.4223065 4.9911971,8.6056181 4.9053258,8.8041329 4.7571039,9.1198611 4.3083784,9.5828799 3.9780521,9.3398108 3.8547338,9.1865234 3.7923697,8.9985823 3.6988258,8.8271209 3.5969871,8.6245574 3.503657,8.4179467 3.3918725,8.2204027 3.268215,7.9913747 3.1500994,7.7591348 3.0152502,7.5363611 2.8680686,7.2857145 2.7170018,7.0373154 2.5455771,6.8022463 2.387777,6.560764 2.231808,6.3174525 2.0502827,6.0927514 c 0,0 0.6503875,-0.3811073 0.6503875,-0.3811073 z"
   inkscape:connector-curvature="0" /><path
   style="fill:#999999;fill-opacity:1"
   id="path3104"
   d="M 4.1003201,8.546392 C 4.1752991,8.3674777 4.2383475,8.1840139 4.3085721,8.0033494 4.364432,7.8721371 4.4163135,7.7404259 4.4794014,7.6124964 4.5569901,7.4299656 4.6714081,7.2771232 4.8143943,7.1418324 5.0102061,6.9734851 5.225157,6.8307081 5.4453688,6.6967475 6.0032682,6.3602412 6.5780602,6.0535057 7.1575796,5.7564336 7.227761,5.7178272 7.2975047,5.6784142 7.3681238,5.6406143 7.6108145,5.5107105 7.5662153,5.5423838 7.8080201,5.4069662 7.8779901,5.367781 8.0859569,5.246813 8.016133,5.2862579 7.8699775,5.3688238 7.4332429,5.6195684 7.5790184,5.5363335 7.8487225,5.3823378 8.1182854,5.2280948 8.3879189,5.0739755 8.2359979,5.1612805 7.7795175,5.4219352 7.9321558,5.3358904 8.1999155,5.1832852 8.4676752,5.0306801 8.7354349,4.8780749 8.7906896,4.8491002 8.8466335,4.8214036 8.901199,4.791151 8.9508741,4.7636097 8.998337,4.7321929 9.0480637,4.704745 9.0978462,4.6772662 9.2484185,4.5972519 9.1996143,4.6264327 9.0391336,4.7223868 8.8750974,4.8122653 8.712839,4.9051815 8.9761063,4.7533498 9.2393736,4.6015181 9.5026409,4.4496865 9.5569387,4.4205087 9.7186687,4.3309068 9.6655344,4.3621533 9.5131136,4.4517866 9.3603465,4.5409769 9.2047045,4.6248924 9.149566,4.6546207 9.3108445,4.5583303 9.3637848,4.5248436 9.5339502,4.4172077 9.4661267,4.4625974 9.6178117,4.3541713 9.7888699,4.22799 9.9522167,4.094329 10.071686,3.9171935 c 0.07218,-0.1133289 0.131512,-0.2330885 0.175585,-0.3598569 0,0 0.681495,-0.3207646 0.681495,-0.3207646 l 0,0 c -0.04026,0.1333835 -0.0974,0.2593758 -0.170789,0.3781129 -0.03871,0.066098 -0.05883,0.106539 -0.108586,0.1661446 -0.09703,0.1162437 -0.225556,0.2027327 -0.340584,0.2991708 C 9.9333346,4.3655805 9.4929411,4.5936925 9.0910313,4.8249392 9.0375739,4.855697 8.8758509,4.9455422 8.9289027,4.91409 9.0860392,4.8209303 9.2451948,4.7312192 9.4033409,4.6397839 7.4604017,5.7600139 9.0978043,4.8262939 8.4730841,5.1702721 8.4238587,5.1973762 8.3755665,5.2261576 8.3262498,5.2530955 8.2720042,5.2827257 8.109854,5.3724731 8.1624235,5.3399619 8.3336394,5.2340751 9.7378642,4.426519 7.8160307,5.5353302 7.9650806,5.4478831 8.4131604,5.1871468 8.2631804,5.2729889 7.7073515,5.5911216 7.1590703,5.9217877 6.5883332,6.2129903 6.3748342,6.3240251 6.1631317,6.4382555 5.9502482,6.5504593 5.891819,6.5812554 5.8329727,6.6112752 5.7749969,6.6429168 5.7257398,6.6698 5.5801421,6.754333 5.6285875,6.7260132 5.7988351,6.6264911 5.9698038,6.5282078 6.1404119,6.4293052 5.9182083,6.5555087 5.7061891,6.6990699 5.5074532,6.8596067 5.3601037,6.9816886 5.2404505,7.1229731 5.1632701,7.3002181 c -0.084467,0.1996847 0.017685,-0.03209 -0.065807,0.1320272 -0.042019,0.082596 -0.05809,0.1772517 -0.1065275,0.2572628 -0.039454,0.085168 -0.064598,0.1727726 -0.09806,0.2604106 -0.012574,0.032931 -0.026169,0.065462 -0.039253,0.098192 -0.01352,0.030455 -0.028329,0.06037 -0.04056,0.091365 -0.011122,0.028186 -0.019621,0.057338 -0.029431,0.086007 0,0 -0.6833108,0.3209083 -0.6833108,0.3209083 z"
   inkscape:connector-curvature="0" /><path
   style="fill:#999999;fill-opacity:1"
   id="path3106"
   d="M 3.4488559,8.3873543 C 3.5759144,8.1511113 3.7184865,7.924056 3.8612562,7.6971267 3.9907134,7.4782742 4.1482827,7.2789668 4.2979846,7.0741478 4.3873978,6.9446978 4.5105037,6.8493666 4.645129,6.7704372 5.3744373,6.3428511 5.1538964,6.4544935 5.5448176,6.2638545 5.7851547,6.1529021 6.0123487,6.0162537 6.2475582,5.8954827 6.489881,5.7782515 6.3725163,5.8375422 6.5999263,5.718154 6.8657851,5.5859251 7.1307442,5.452188 7.3959521,5.3186327 7.4970837,5.2652939 7.5970039,5.2105515 7.6966754,5.1546228 7.7321519,5.1347159 7.8390944,5.0759438 7.8039279,5.0963933 7.6283658,5.1984839 7.0999981,5.5018439 7.275452,5.3995672 7.5259134,5.2535666 7.7777869,5.110002 8.0289544,4.9652194 8.0700091,4.9415871 8.1931902,4.8707193 8.1521186,4.8943224 6.9396664,5.5910971 8.1710393,4.8828837 8.4258649,4.7415254 8.4747297,4.7144189 8.5271663,4.694266 8.5769307,4.6688486 8.9380833,4.4843887 8.4927725,4.699332 8.87061,4.5197625 9.0004198,4.4518451 9.1285962,4.3810322 9.2571305,4.3107997 9.2895587,4.2930806 9.3870206,4.2402932 9.3550762,4.2588704 8.6144675,4.6895717 8.6254903,4.6838161 8.8609755,4.5387666 9.0000987,4.4483843 9.1319025,4.3492071 9.2735604,4.2627191 9.4786445,4.1413725 9.6754334,4.0087969 9.8659093,3.8658319 c 0.064089,-0.052036 0.1301996,-0.1011318 0.1977637,-0.148497 0,0 0.700381,-0.2740705 0.700381,-0.2740705 l 0,0 c -0.07014,0.044481 -0.139758,0.089765 -0.201911,0.1453369 -0.190284,0.1451698 -0.384476,0.2832855 -0.5917797,0.4035511 -0.031034,0.020184 -0.062069,0.040367 -0.093103,0.060551 -0.024855,0.012685 -0.050956,0.023178 -0.074565,0.038054 C 9.7189006,4.1435546 9.6507715,4.2211605 9.5615563,4.2669004 9.1521159,4.5281962 8.7234017,4.7582889 8.292244,4.9813191 7.9593928,5.1465584 8.3188298,4.9668316 7.9987062,5.1307336 7.9489501,5.1562086 7.8014138,5.2355682 7.8488448,5.2059888 7.98042,5.1239344 9.4600822,4.269466 7.5742958,5.3620825 7.5329498,5.3860382 7.491441,5.4097118 7.4500135,5.4335265 8.7692789,4.6694255 7.2135597,5.5880044 6.8135498,5.7845881 6.5503642,5.9158424 6.2879945,6.0485864 6.0247096,6.1796319 5.6709526,6.3604749 5.3206997,6.5476999 4.9661521,6.727014 4.6769838,6.8773177 4.6681409,6.8848122 5.3395854,6.5005275 5.3770914,6.4790619 5.2661038,6.5460287 5.2294195,6.5688702 5.1363913,6.6267946 5.0489662,6.684191 4.9855946,6.7764944 4.8368163,6.983496 4.6703215,7.1776438 4.5403001,7.3978637 4.3998538,7.6213134 4.2551027,7.842821 4.1373901,8.0794368 c 0,0 -0.6885342,0.3079175 -0.6885342,0.3079175 z"
   inkscape:connector-curvature="0" /><path
   style="fill:#999999;fill-opacity:1"
   id="path3108"
   d="M 10.726277,3.2158372 C 10.559189,3.4181091 10.363526,3.5982075 10.149584,3.7499095 9.7609245,4.0119555 9.3360141,4.2065902 8.9308937,4.4381618 8.7048338,4.5575682 8.4634501,4.643796 8.2372613,4.7630209 7.9030741,4.9321238 7.5791621,5.119122 7.2369811,5.2720912 6.992056,5.385452 6.7418071,5.4870914 6.4984707,5.6038272 6.3248601,5.711863 6.1393031,5.7983071 5.9614696,5.8989151 5.9056503,5.9267509 5.8495053,5.953943 5.7940117,5.9824225 5.7362814,6.0120499 5.6785777,6.0417747 5.6218196,6.0732246 5.569612,6.1021531 5.41528,6.1929726 5.4671911,6.1635154 5.8384375,5.9528493 6.1659444,5.7582839 5.8346825,5.9566702 5.79571,5.98001 5.7566574,6.0032157 5.7176449,6.0264885 5.542492,6.1257265 5.3835727,6.2455815 5.2781465,6.4189478 5.2170675,6.55141 5.2152356,6.6988507 5.2130674,6.8419901 5.2190552,7.0080273 5.1794871,7.1702552 5.1315803,7.3278604 5.0792468,7.5135584 5.0165532,7.6951472 4.950879,7.8764676 4.9010377,8.0154204 4.8393307,8.1495466 4.7834374,8.2860453 4.6787948,8.5742177 4.2687673,9.0069512 3.9795838,8.7517871 c 0,0 0.6379295,-0.4075905 0.6379295,-0.4075905 l 0,0 c 0.2563765,0.085024 0.024601,0.00109 -0.6043967,0.375011 -0.010173,0.00605 0.025413,-0.00327 0.033419,-0.011983 0.026458,-0.028797 0.023289,-0.077613 0.05313,-0.104598 C 4.1524011,8.4643456 4.2176293,8.3314517 4.2712308,8.1935026 4.3367911,8.0127621 4.4045812,7.8341075 4.4528765,7.6477506 4.5027271,7.4979618 4.5460849,7.3423961 4.5414838,7.1831005 4.543082,7.0297944 4.5448113,6.8746409 4.5911682,6.7268827 4.6847447,6.5355433 4.8390864,6.3991242 5.0231912,6.294011 5.5232848,5.9989127 6.0189171,5.6950364 6.5378151,5.4336778 6.7196202,5.3339983 6.9022081,5.2357431 7.0847524,5.1374506 7.3271598,5.0275132 7.5721775,4.9234546 7.8145882,4.8135124 8.1550941,4.6557475 8.4797713,4.4681027 8.8151651,4.3000485 9.0462394,4.1863483 9.2872811,4.0933796 9.5128101,3.9684399 9.7767275,3.8254293 10.584921,3.3789944 9.4547587,4.0221338 9.6721142,3.8834531 9.8640489,3.7075349 10.036029,3.5159769 c 0,0 0.690248,-0.3001397 0.690248,-0.3001397 z"
   inkscape:connector-curvature="0" /><path
   style="fill:#999999;fill-opacity:1"
   id="path3110"
   d="m 4.5526081,7.7175398 c -0.014659,0.1213924 -0.00786,0.058722 -0.020095,0.1880428 0,0 -0.6704012,0.3344027 -0.6704012,0.3344027 l 0,0 c 0.00988,-0.1288496 0.00531,-0.066505 0.013793,-0.187028 0,0 0.6767027,-0.3354175 0.6767027,-0.3354175 z"
   inkscape:connector-curvature="0" /><path
   style="fill:#999999;fill-opacity:1"
   id="path3112"
   d="M 3.9562182,8.2901094 C 4.0829999,8.0980718 4.1995549,7.9001463 4.3151784,7.7013057 4.4406136,7.4968824 4.5395617,7.2765647 4.6865938,7.086419 4.8287645,6.9145698 4.9968153,6.7667053 5.1700106,6.6271571 5.3439023,6.4891651 5.5168141,6.3504919 5.6992742,6.2238997 c 0.1075331,-0.066351 0.055148,-0.033965 0.1571629,-0.097145 0,0 0.6997282,-0.2720832 0.6997282,-0.2720832 l 0,0 C 6.4545575,5.9211077 6.5073691,5.8888266 6.3974877,5.9511161 6.2086505,6.0693058 6.0380153,6.2124663 5.8628743,6.3497652 5.6884493,6.4836642 5.5210241,6.6289903 5.3749808,6.7937837 5.2150418,6.9730246 5.1205211,7.1943205 4.9960176,7.3984046 4.8815554,7.5955243 4.7690769,7.7930133 4.646977,7.9854562 c 0,0 -0.6907588,0.3046532 -0.6907588,0.3046532 z"
   inkscape:connector-curvature="0" /><path
   style="fill:#999999;fill-opacity:1"
   id="path3114"
   d="M 4.6545541,7.5667773 C 4.9845003,7.3075363 5.3544718,7.1723811 5.7165903,6.9886811 5.891533,6.899934 6.0609173,6.8012731 6.2309278,6.7035851 6.0700712,6.7932853 5.9149752,6.8942018 5.7483581,6.9726855 5.6939196,6.9983284 5.845689,6.9017551 5.8919422,6.8632617 5.9410063,6.8224289 5.9881861,6.7792978 6.0340622,6.7349133 6.1531288,6.6197179 6.2624352,6.4946134 6.3679767,6.3671818 6.5328595,6.1677091 6.6517528,5.9375215 6.7730963,5.7104933 6.8382238,5.5812246 6.9150813,5.4584684 6.9886261,5.3339494 c 0,0 0.6800205,-0.3020382 0.6800205,-0.3020382 l 0,0 C 7.595574,5.1561864 7.5149913,5.2759217 7.4512175,5.4054535 7.3311457,5.6362741 7.2151223,5.8719895 7.051344,6.0758083 6.9071781,6.2568058 6.7502791,6.4345533 6.5772169,6.5887116 6.5319395,6.6290432 6.4878589,6.671742 6.436539,6.7040366 6.180802,6.8649667 5.9171715,7.0129979 5.6574877,7.1674786 5.4326411,7.2949524 5.2058198,7.4154002 4.9742995,7.5302688 4.9275233,7.5534768 4.7897965,7.6278871 4.8343581,7.6006679 5.0059838,7.4958352 5.1820036,7.3983719 5.3558263,7.297224 c 0,0 -0.7012722,0.2695533 -0.7012722,0.2695533 z"
   inkscape:connector-curvature="0" /><path
   style="fill:#999999;fill-opacity:1"
   id="path3116"
   d="M 4.4416655,7.1550515 C 4.847716,6.8720086 5.2686128,6.6106042 5.6812789,6.3371432 5.9183662,6.1695541 6.1669319,6.0192301 6.4128267,5.865131 c 0,0 0.6939646,-0.2696563 0.6939646,-0.2696563 l 0,0 C 6.8592812,5.7538925 6.6043533,5.9009669 6.363955,6.0702852 5.9567317,6.3396153 5.5446806,6.6014769 5.1376062,6.8710615 c 0,0 -0.6959407,0.28399 -0.6959407,0.28399 z"
   inkscape:connector-curvature="0" /><path
   style="fill:#999999;fill-opacity:1"
   id="path3118"
   d="m 5.7054669,6.0846689 c 0.2724318,-0.12462 0.5429098,-0.2534483 0.812595,-0.383887 0.2926352,-0.1610338 0.1625794,-0.090263 -0.3848567,0.2217938 0,0 0.6925435,-0.2673431 0.6925435,-0.2673431 l 0,0 C 6.0204773,6.1231608 6.3223051,5.9636463 5.9369932,6.1641704 5.6644666,6.2948499 5.3903086,6.4221057 5.1184728,6.5542087 c 0,0 0.5869941,-0.4695398 0.5869941,-0.4695398 z"
   inkscape:connector-curvature="0" /><path
   style="fill:#999999;fill-opacity:1"
   id="path3120"
   d="M 4.1752028,6.8582133 C 4.4262494,6.620955 4.7174332,6.4419899 5.0137356,6.2682582 5.3853953,6.2388692 5.6258091,5.8520254 5.9723956,5.7359304 6.0926487,5.6956496 6.3300784,5.6603135 6.447792,5.6400513 c 0,0 -0.5801739,0.4381673 -0.5801739,0.4381673 l 0,0 C 5.6861842,6.1149769 5.5650044,6.1306139 5.3946715,6.1965232 5.250298,6.2523875 4.6620967,6.6101147 5.6990314,6.0047498 5.526458,6.1054649 5.34878,6.1998422 5.1858091,6.3160079 4.9940199,6.4527153 5.1228051,6.3692649 4.9558703,6.5078813 c -0.026901,0.022338 -0.056403,0.041342 -0.084605,0.062013 0,0 -0.6960627,0.2883186 -0.6960627,0.2883186 z"
   inkscape:connector-curvature="0" /><path
   style="fill:#999999;fill-opacity:1"
   id="path3122"
   d="m 4.8393827,7.4551951 c 0.1807924,-0.2290854 0.338954,-0.4745656 0.5154019,-0.706827 0.1588659,-0.2158695 0.302328,-0.4416869 0.4762841,-0.646165 0.07633,-0.082712 0.1529376,-0.1650159 0.2340964,-0.2430102 0,0 0.697058,-0.2857443 0.697058,-0.2857443 l 0,0 C 6.6775606,5.6495301 6.5985838,5.7301965 6.5196466,5.8121869 6.3367747,6.0095583 6.1922214,6.2346915 6.0389453,6.454806 5.859472,6.6819893 5.7021494,6.9247514 5.5291194,7.1567585 c 0,0 -0.6897367,0.2984366 -0.6897367,0.2984366 z"
   inkscape:connector-curvature="0" /><path
   style="fill:#999999;fill-opacity:1"
   id="path3124"
   d="M 4.5908536,7.1668426 C 4.8117361,7.023147 5.0062038,6.8451088 5.203657,6.6719732 5.3737409,6.5124132 5.5448813,6.3543369 5.7290099,6.2110614 5.8821627,6.0816008 6.0567733,5.977442 6.1853324,5.8217104 c 0.059201,-0.09251 0.00257,-0.1654556 -0.06556,-0.2310047 -0.048486,-0.052123 -0.025618,-0.023149 -0.067389,-0.087865 0,0 0.6520575,-0.3815467 0.6520575,-0.3815467 l 0,0 c 0.035355,0.052473 0.015493,0.027609 0.059815,0.074408 0.087883,0.090568 0.1537754,0.1980046 0.112134,0.3278741 C 6.75891,5.6980096 6.5814329,5.8018964 6.4222817,5.934879 6.2347367,6.0737979 6.0608191,6.2292495 5.8939833,6.3922455 5.6936699,6.5598734 5.5057052,6.7421952 5.2935029,6.8957638 c 0,0 -0.7026493,0.2710788 -0.7026493,0.2710788 z"
   inkscape:connector-curvature="0" /><path
   style="fill:#999999;fill-opacity:1"
   id="path3126"
   d="M 4.6596421,7.3769005 C 4.7175383,7.194221 4.7713402,7.0102189 4.8485617,6.8345722 c 0.078669,-0.1625186 0.214676,-0.28715 0.3413369,-0.4125311 0.083512,-0.082684 0.042289,-0.040978 0.1236784,-0.1251075 0,0 0.6930517,-0.2888518 0.6930517,-0.2888518 l 0,0 c -0.080977,0.085511 -0.040254,0.042803 -0.122173,0.1281196 -0.086703,0.079901 -0.1668478,0.1653175 -0.2475531,0.2510414 -0.019768,0.020997 -0.043767,0.038158 -0.061282,0.061067 -0.017641,0.023074 -0.028828,0.050433 -0.043242,0.075649 -0.087872,0.1667232 -0.1406,0.3506191 -0.1894254,0.5320325 0,0 -0.6833108,0.3209083 -0.6833108,0.3209083 z"
   inkscape:connector-curvature="0" /><path
   style="fill:#999999;fill-opacity:1"
   id="path3128"
   d="M 7.6248536,5.6476859 C 7.9118647,5.4291867 8.2093734,5.2245538 8.5076802,5.0218336 8.746535,4.8529503 8.9803699,4.6773321 9.2288098,4.5226388 9.4928347,4.3633616 9.7572274,4.2066252 9.9728982,3.9838925 10.085365,3.8572142 10.155096,3.70943 10.183872,3.5438425 c 0.0083,-0.058125 0.0091,-0.1168184 0.01012,-0.1753845 0,0 0.672521,-0.3418169 0.672521,-0.3418169 l 0,0 c -1.33e-4,0.061615 7.72e-4,0.1233877 -0.0055,0.1847857 -0.02297,0.179072 -0.08639,0.3423926 -0.201167,0.4842986 -0.0292,0.0338 -0.05619,0.069655 -0.08761,0.1014007 -0.187634,0.1895426 -0.428172,0.31077 -0.6479665,0.4565935 C 9.6698439,4.4059689 9.4305389,4.5806018 9.1903927,4.7542076 8.8973633,4.9511834 8.6088949,5.154543 8.3247045,5.3640731 c 0,0 -0.6998509,0.2836128 -0.6998509,0.2836128 z"
   inkscape:connector-curvature="0" /><path
   style="fill:#999999;fill-opacity:1"
   id="path3130"
   d="M 8.0290298,5.337927 C 8.2080498,5.1266113 8.3833497,4.9121641 8.5693437,4.7068949 8.7128027,4.5550304 8.8615692,4.4087352 8.9962095,4.2488124 9.0535717,4.1725406 9.1098359,4.0954767 9.1594674,4.0139399 c 0,0 0.6889854,-0.3080723 0.6889854,-0.3080723 l 0,0 C 9.8029124,3.7951842 9.7419384,3.8724411 9.6856342,3.9551486 9.5542574,4.1203797 9.4058213,4.2693817 9.2570166,4.4188129 9.0697405,4.6181254 8.8965404,4.8291623 8.7219231,5.0393335 c 0,0 -0.6928933,0.2985935 -0.6928933,0.2985935 z"
   inkscape:connector-curvature="0" /><path
   style="fill:#999999;fill-opacity:1"
   id="path3132"
   d="M 8.4307944,4.6799399 C 8.5430305,4.5045429 8.6546133,4.3291593 8.7744489,4.1587852 8.9007852,3.9972606 9.0567509,3.8641244 9.2137201,3.73382 9.5147233,3.4816092 9.8871138,3.3365038 10.225194,3.1428429 c 0,0 -0.5837931,0.4709788 -0.5837931,0.4709788 l 0,0 c -0.052485,0.028039 -0.1053378,0.05539 -0.1576967,0.083665 -0.022863,0.012346 -0.090525,0.051046 -0.06816,0.037819 C 10.035143,3.36886 10.158313,3.2824143 9.9093488,3.4523093 9.7565829,3.5848451 9.5937586,3.7061415 9.461296,3.8609209 9.3403197,4.0275418 9.2271699,4.1985619 9.1215533,4.3752867 c 0,0 -0.6907589,0.3046532 -0.6907589,0.3046532 z"
   inkscape:connector-curvature="0" /><path
   style="fill:#999999;fill-opacity:1"
   id="path3134"
   d="M 9.3196671,4.5736223 C 9.5677377,4.4314632 9.8158083,4.2893042 10.063879,4.1471452 10.102429,4.125386 10.217947,4.0598737 10.17953,4.0818675 10.008328,4.1798809 9.8396823,4.2825514 9.6655207,4.375205 9.6253537,4.3965737 9.7403194,4.3233532 9.7767752,4.2961322 9.8697329,4.2267222 9.8833202,4.2121881 9.9676697,4.1385413 10.087686,4.0348617 10.154028,3.9039237 10.18267,3.750678 c 0.01093,-0.049889 0.005,-0.098119 -0.0013,-0.1478745 0,0 0.668215,-0.3529273 0.668215,-0.3529273 l 0,0 c 0.0095,0.056203 0.02117,0.1117311 0.01054,0.1689268 -0.02212,0.1660074 -0.07657,0.3191142 -0.201043,0.4375866 -0.343966,0.3187036 -0.585651,0.4186417 -1.0587525,0.6934587 -0.03897,0.022637 -0.1567357,0.089047 -0.1178542,0.066258 0.1795259,-0.1052206 0.3598681,-0.2090419 0.5398017,-0.3135629 0,0 -0.7026489,0.2710788 -0.7026489,0.2710788 z"
   inkscape:connector-curvature="0" /><path
   style="fill:#999999;fill-opacity:1"
   id="path3136"
   d="M 9.0968264,4.4226728 C 9.2281141,4.2452284 9.3613453,4.0686001 9.4681336,3.8750555 9.5062215,3.8081601 9.5409778,3.7399227 9.572476,3.6697498 c 0,0 0.683707,-0.3156932 0.683707,-0.3156932 l 0,0 c -0.02779,0.075214 -0.06081,0.1466197 -0.104966,0.2140588 -0.101629,0.1976165 -0.2352948,0.3736271 -0.3614973,0.5559639 0,0 -0.6928933,0.2985935 -0.6928933,0.2985935 z"
   inkscape:connector-curvature="0" /><path
   style="fill:#999999;fill-opacity:1"
   id="path3138"
   d="M 9.104894,4.6791838 C 9.2839792,4.5483443 9.4486166,4.3996386 9.601561,4.2393725 c 0.019309,-0.019117 0.038619,-0.038233 0.057928,-0.05735 0,0 0.6953589,-0.2854715 0.6953589,-0.2854715 l 0,0 c -0.02037,0.018149 -0.04075,0.036297 -0.06112,0.054446 -0.153759,0.1593498 -0.3106898,0.3151166 -0.487745,0.4493745 0,0 -0.701087,0.278812 -0.701087,0.278812 z"
   inkscape:connector-curvature="0" /><path
   style="fill:#999999;fill-opacity:1"
   id="path3140"
   d="M 4.6286005,6.8564335 C 4.8034632,6.6768325 4.943408,6.4703583 5.0905638,6.2686547 5.1745731,6.1241596 5.2900515,6.0042408 5.416702,5.8969289 5.7556037,5.6161192 6.1480331,5.4065235 6.5377673,5.2052208 6.9779047,4.947416 5.7425856,5.667137 6.198872,5.3961951 c 0,0 0.6969077,-0.2681032 0.6969077,-0.2681032 l 0,0 C 6.5819652,5.3102786 6.2714217,5.4981947 5.9542107,5.6744343 5.7147438,5.8055821 5.5917527,5.8739473 6.419497,5.4007646 c 0.026776,-0.015307 -0.051853,0.033411 -0.077843,0.050018 -0.083555,0.05339 -0.080229,0.04824 -0.159407,0.1087763 -0.023111,0.01767 -0.045356,0.036443 -0.068034,0.054665 C 5.9905227,5.7216867 5.8544049,5.8226712 5.7774514,5.9718427 5.6297315,6.171557 5.4950627,6.3809762 5.3209576,6.55951 c 0,0 -0.6923571,0.2969235 -0.6923571,0.2969235 z"
   inkscape:connector-curvature="0" /><path
   style="fill:#999999;fill-opacity:1"
   id="path3142"
   d="M 3.8507683,7.9837046 C 3.9259591,7.8026545 4.0086415,7.6252955 4.0913977,7.447661 4.1592471,7.2950255 4.2477366,7.1533697 4.3255398,7.0058834 4.4250831,6.8438849 4.507718,6.6714582 4.6214227,6.5186747 c 0.042895,-0.05398 0.095318,-0.098835 0.145986,-0.1451304 0,0 0.6975595,-0.2866812 0.6975595,-0.2866812 l 0,0 C 5.4160771,6.1347183 5.3635814,6.1774044 5.3127328,6.2231652 5.1895332,6.3674427 5.1097941,6.5379194 5.0097061,6.6983048 4.9818184,6.7506497 4.9588774,6.8055656 4.930247,6.857508 4.8790364,6.9504164 4.8136711,7.0363294 4.774401,7.1361211 c -0.08123,0.177102 -0.1729228,0.3490079 -0.2375284,0.533406 0,0 -0.6861043,0.3141775 -0.6861043,0.3141775 z"
   inkscape:connector-curvature="0" /><path
   style="fill:#999999;fill-opacity:1"
   id="path3144"
   d="M 4.5216966,7.0624443 C 4.7399528,6.7672234 4.9694497,6.4803172 5.1984382,6.1933348 5.3448909,6.011606 5.4961492,5.8340492 5.6536473,5.6618323 c 0,0 0.6943598,-0.2918092 0.6943598,-0.2918092 l 0,0 C 6.1897369,5.5478313 6.022537,5.7178795 5.87421,5.9047018 5.6479827,6.185575 5.4237086,6.4680523 5.2123071,6.760279 c 0,0 -0.6906105,0.3021653 -0.6906105,0.3021653 z"
   inkscape:connector-curvature="0" /><path
   style="fill:#999999;fill-opacity:1"
   id="path3146"
   d="M 9.0057657,4.4135325 C 9.250654,4.3132446 9.4923873,4.20067 9.7271114,4.0779991 9.7644676,4.0576556 9.875944,3.9955733 9.83918,4.0169686 9.6600234,4.1212309 9.1207686,4.4309296 9.2998982,4.326621 9.5418793,4.1857135 9.7892404,4.0538988 10.027737,3.9071704 10.213239,3.7930452 9.6513567,4.1266758 9.458965,4.2287595 c -0.025968,0.013779 0.046414,-0.036183 0.068161,-0.055963 0.022426,-0.020397 0.042796,-0.042946 0.064194,-0.06442 C 9.705304,3.98297 9.8092064,3.8472591 9.8818642,3.6936707 c 0.036383,-0.082833 0.046721,-0.1718211 0.052591,-0.2610481 0,0 0.6750929,-0.3395899 0.6750929,-0.3395899 l 0,0 c -0.0037,0.096778 -0.01048,0.193976 -0.04285,0.2862085 -0.0649,0.1638691 -0.169635,0.3055943 -0.283408,0.4392458 C 10.040016,4.1027344 9.8677423,4.0961869 9.4453136,4.3781811 9.2684971,4.4962158 10.182228,3.9538141 9.997324,4.0587272 9.0617306,4.5895753 9.5335956,4.3393737 9.1462363,4.5432824 8.9058261,4.662096 8.6633498,4.7775062 8.416179,4.8815774 c 0,0 0.5895867,-0.4680449 0.5895867,-0.4680449 z"
   inkscape:connector-curvature="0" /><path
   style="fill:#999999;fill-opacity:1"
   id="path3148"
   d="m 8.6967265,4.8857588 c 0.2390639,-0.1382666 0.4781277,-0.2765333 0.7171915,-0.4148 0.027814,-0.013692 0.1102437,-0.056656 0.083442,-0.041076 -0.1870494,0.1087314 -0.3751758,0.2156318 -0.5643483,0.3206259 -0.02505,0.013903 0.048032,-0.03125 0.071797,-0.047251 0.065206,-0.043905 0.066567,-0.045906 0.1288954,-0.091829 0.060408,-0.042845 0.1067974,-0.098242 0.1512945,-0.1563931 0,0 0.6904939,-0.3011657 0.6904939,-0.3011657 l 0,0 C 9.9350832,4.2197829 9.8926403,4.2828054 9.8324586,4.3329913 9.5464409,4.5574756 9.2329053,4.7131039 8.9121825,4.8991757 8.748933,4.9938872 8.0089553,5.3410398 9.4005892,4.6127409 c 0,0 -0.7038627,0.2730179 -0.7038627,0.2730179 z"
   inkscape:connector-curvature="0" /><path
   style="fill:#999999;fill-opacity:1"
   id="path3150"
   d="m 8.8815873,4.8747658 c 0.010892,-0.033607 0.021785,-0.067214 0.032677,-0.1008206 0,0 0.6772836,-0.3192497 0.6772836,-0.3192497 l 0,0 c -0.00995,0.032017 -0.019908,0.064034 -0.029862,0.096052 0,0 -0.6800984,0.3240187 -0.6800984,0.3240187 z"
   inkscape:connector-curvature="0" /><path
   style="fill:#999999;fill-opacity:1"
   id="path3152"
   d="m 9.9091254,3.5622139 c 0.017569,-0.021291 0.035137,-0.042581 0.052706,-0.063872 0,0 0.6907518,-0.2962872 0.6907518,-0.2962872 l 0,0 c -0.01601,0.021945 -0.03203,0.043889 -0.04804,0.065834 0,0 -0.6954136,0.2943248 -0.6954136,0.2943248 z"
   inkscape:connector-curvature="0" /></svg>